<?xml version="1.0" standalone="no"?>
<!DOCTYPE svg PUBLIC "-//W3C//DTD SVG 20010904//EN"
 "http://www.w3.org/TR/2001/REC-SVG-20010904/DTD/svg10.dtd">
<svg version="1.0" xmlns="http://www.w3.org/2000/svg"
 width="260.000000pt" height="260.000000pt" viewBox="0 0 260.000000 260.000000"
 preserveAspectRatio="xMidYMid meet">
<metadata>
Created by potrace 1.14, written by Peter Selinger 2001-2017
</metadata>
<g transform="translate(0.000000,260.000000) scale(0.100000,-0.100000)"
fill="#000000" stroke="none">
<path d="M0 1300 l0 -1300 1300 0 1300 0 0 1300 0 1300 -1300 0 -1300 0 0
-1300z m2080 881 l0 -168 -77 -2 c-47 -1 -81 -7 -85 -14 -4 -7 -8 -96 -8 -198
0 -161 -2 -188 -16 -193 -9 -3 -105 -6 -215 -6 l-199 0 2 -287 3 -288 210 -6
c116 -3 211 -6 213 -7 1 -1 2 -87 2 -192 l0 -189 78 -3 77 -3 0 -175 0 -175
-788 -3 -787 -2 2 177 3 178 188 3 c103 1 187 6 187 10 0 4 -17 16 -37 27 -59
32 -185 163 -229 240 -88 152 -109 232 -108 410 0 157 16 233 74 347 53 103
154 221 240 281 45 31 60 45 60 60 0 5 -81 7 -180 5 l-180 -3 0 173 0 172 785
0 785 0 0 -169z"/>
<path d="M1049 1527 c-73 -67 -104 -164 -87 -273 9 -61 58 -145 103 -177 l25
-18 0 251 c0 137 -1 250 -2 250 -2 0 -19 -15 -39 -33z"/>
</g>
</svg>
